<svg width="26" height="25" viewBox="0 0 26 25" fill="none" xmlns="http://www.w3.org/2000/svg">
<g clip-path="url(#clip0_1180_851)">
<path d="M6.30551 14.5341L5.46851 17.6591L2.40851 17.7241C1.48304 16.0005 0.991288 14.0774 0.975781 12.1211C0.960274 10.1648 1.42148 8.23416 2.31951 6.49609L5.04351 6.99609L6.23651 9.7041C5.69954 11.2741 5.72321 12.9816 6.30351 14.5361L6.30551 14.5341Z" fill="#FBBB00"/>
<path d="M24.8145 9.77832C25.2226 11.9223 25.0393 14.1368 24.2842 16.1845C23.5291 18.2321 22.2308 20.0356 20.5285 21.4013L17.0975 21.2263L16.6115 18.1953C18.0282 17.3646 19.1166 16.0725 19.6945 14.5353H13.2645V9.77832H24.8145Z" fill="#518EF8"/>
<path d="M20.5275 21.4012C19.1516 22.5056 17.5496 23.2937 15.835 23.7098C14.1205 24.1259 12.3354 24.1597 10.6063 23.8088C8.87725 23.4579 7.24654 22.7309 5.82982 21.6794C4.4131 20.6279 3.24506 19.2776 2.40851 17.7242L6.30851 14.5342C6.67455 15.5093 7.24915 16.3927 7.99214 17.1226C8.73514 17.8525 9.62858 18.4113 10.61 18.76C11.5915 19.1087 12.6372 19.2388 13.6742 19.1412C14.7112 19.0437 15.7143 18.7208 16.6135 18.1952L20.5275 21.4012Z" fill="#28B446"/>
<path d="M20.6745 2.76832L16.7745 5.95732C15.8622 5.38982 14.8337 5.0352 13.7656 4.91984C12.6974 4.80448 11.6169 4.93133 10.6045 5.29096C9.59207 5.6506 8.67371 6.23378 7.91767 6.99715C7.16163 7.76053 6.58734 8.68447 6.2375 9.70032L2.3205 6.49532C3.14685 4.90032 4.32001 3.51069 5.75379 2.42848C7.18757 1.34628 8.84557 0.599 10.606 0.241524C12.3664 -0.115952 14.1846 -0.0745412 15.9269 0.362714C17.6692 0.799969 19.2915 1.62196 20.6745 2.76832Z" fill="#F14336"/>
</g>
<defs>
<clipPath id="clip0_1180_851">
<rect width="24.049" height="24.049" fill="white" transform="translate(0.975525)"/>
</clipPath>
</defs>
</svg>
